<mxfile host="app.diagrams.net" agent="Mozilla/5.0 (Windows NT 10.0; Win64; x64) AppleWebKit/537.36 (KHTML, like Gecko) Chrome/109.0.0.0 Safari/537.36" version="24.8.6">
  <diagram name="Page-1" id="fc2ac565-0d4e-3f0d-88b0-a54af1634ed7">
    <mxGraphModel dx="1420" dy="782" grid="1" gridSize="10" guides="1" tooltips="1" connect="0" arrows="1" fold="1" page="1" pageScale="1.5" pageWidth="2500" pageHeight="870" background="none" math="0" shadow="0">
      <root>
        <mxCell id="0" style=";html=1;" />
        <mxCell id="1" style=";html=1;" parent="0" />
        <mxCell id="75" value="&lt;pre style=&quot;background-color: var(--bgColor-muted); margin-top: 0px; margin-bottom: var(--base-size-16); overflow-wrap: normal; padding: var(--base-size-16); overflow: auto; line-height: 1.45; border-radius: 6px;&quot;&gt;&lt;font face=&quot;ui-monospace, SFMono-Regular, SF Mono, Menlo, Consolas, Liberation Mono, monospace&quot; color=&quot;#1f2328&quot;&gt;&lt;span style=&quot;font-size: 13.6px;&quot;&gt;收益凭证&lt;/span&gt;&lt;/font&gt;&lt;font face=&quot;var(--fontStack-monospace, ui-monospace, SFMono-Regular, SF Mono, Menlo, Consolas, Liberation Mono, monospace)&quot; color=&quot;#1f2328&quot;&gt;&lt;span style=&quot;font-size: 13.6px;&quot;&gt;&lt;br&gt;&lt;/span&gt;&lt;/font&gt;&lt;/pre&gt;" style="align=left;strokeColor=#CCCCCC;html=1;" parent="1" vertex="1">
          <mxGeometry x="297.0000000000003" y="149.99999999999977" width="319.9999999999997" height="20.000000000000014" as="geometry" />
        </mxCell>
        <mxCell id="80" value="条件单一期：单一条件" style="align=left;strokeColor=#CCCCCC;html=1;" parent="1" vertex="1">
          <mxGeometry x="297" y="170.00000000000023" width="320" height="20" as="geometry" />
        </mxCell>
        <mxCell id="85" value="App登录生物识别" style="align=left;strokeColor=#CCCCCC;html=1;" parent="1" vertex="1">
          <mxGeometry x="296.9999999999999" y="190.00000000000023" width="320.0000000000001" height="20" as="geometry" />
        </mxCell>
        <mxCell id="90" value="综合搜索与首页优化" style="align=left;strokeColor=#CCCCCC;html=1;" parent="1" vertex="1">
          <mxGeometry x="296.9999999999999" y="210.00000000000045" width="320.0000000000001" height="20" as="geometry" />
        </mxCell>
        <mxCell id="95" value="条件单二期：复合条件" style="align=left;strokeColor=#CCCCCC;html=1;" parent="1" vertex="1">
          <mxGeometry x="297.0000000000006" y="230.00000000000068" width="319.9999999999994" height="20" as="geometry" />
        </mxCell>
        <mxCell id="100" value="私募基金专版" style="align=left;strokeColor=#CCCCCC;html=1;" parent="1" vertex="1">
          <mxGeometry x="297.0000000000006" y="250.00000000000057" width="319.9999999999994" height="20" as="geometry" />
        </mxCell>
        <mxCell id="2" value="任务名称" style="strokeWidth=1;fontStyle=0;html=1;" parent="1" vertex="1">
          <mxGeometry x="297" y="130" width="320" height="20" as="geometry" />
        </mxCell>
        <mxCell id="67c90442a009f359-289" value="行情交易优化" style="align=left;strokeColor=#CCCCCC;html=1;" parent="1" vertex="1">
          <mxGeometry x="297.0000000000006" y="270.00000000000057" width="319.9999999999994" height="20" as="geometry" />
        </mxCell>
        <mxCell id="67c90442a009f359-290" value="条件单三期：网格条件" style="align=left;strokeColor=#CCCCCC;html=1;" parent="1" vertex="1">
          <mxGeometry x="297.0000000000006" y="290.00000000000057" width="319.9999999999994" height="20" as="geometry" />
        </mxCell>
        <mxCell id="67c90442a009f359-291" value="" style="align=left;strokeColor=#CCCCCC;html=1;" parent="1" vertex="1">
          <mxGeometry x="617" y="150" width="2763" height="20" as="geometry" />
        </mxCell>
        <mxCell id="4" value="&lt;pre style=&quot;text-align: left; background-color: var(--bgColor-muted); font-family: var(--fontStack-monospace, ui-monospace, SFMono-Regular, SF Mono, Menlo, Consolas, Liberation Mono, monospace); font-size: 13.6px; margin-top: 0px; margin-bottom: var(--base-size-16); overflow-wrap: normal; padding: var(--base-size-16); overflow: auto; line-height: 1.45; color: rgb(31, 35, 40); border-radius: 6px;&quot;&gt;&lt;code style=&quot;font-family: var(--fontStack-monospace, ui-monospace, SFMono-Regular, SF Mono, Menlo, Consolas, Liberation Mono, monospace); font-size: 13.6px; padding: 0px; margin: 0px; background: transparent; border-radius: 6px; word-break: normal; border: 0px; display: inline; overflow: visible; line-height: inherit; overflow-wrap: normal;&quot;&gt;09/25&lt;/code&gt;&lt;/pre&gt;" style="strokeWidth=1;fontStyle=0;html=1;" parent="1" vertex="1">
          <mxGeometry x="617" y="130" width="70" height="20" as="geometry" />
        </mxCell>
        <mxCell id="67c90442a009f359-278" value="10/09" style="strokeWidth=1;fontStyle=0;html=1;" parent="1" vertex="1">
          <mxGeometry x="687" y="130" width="70" height="20" as="geometry" />
        </mxCell>
        <mxCell id="67c90442a009f359-279" value="11/01" style="strokeWidth=1;fontStyle=0;html=1;" parent="1" vertex="1">
          <mxGeometry x="757" y="130" width="70" height="20" as="geometry" />
        </mxCell>
        <mxCell id="67c90442a009f359-280" value="11/11" style="strokeWidth=1;fontStyle=0;html=1;" parent="1" vertex="1">
          <mxGeometry x="827" y="130" width="70" height="20" as="geometry" />
        </mxCell>
        <mxCell id="67c90442a009f359-281" value="11/14" style="strokeWidth=1;fontStyle=0;html=1;" parent="1" vertex="1">
          <mxGeometry x="897" y="130" width="70" height="20" as="geometry" />
        </mxCell>
        <mxCell id="67c90442a009f359-282" value="11/15" style="strokeWidth=1;fontStyle=0;html=1;" parent="1" vertex="1">
          <mxGeometry x="967" y="130" width="70" height="20" as="geometry" />
        </mxCell>
        <mxCell id="67c90442a009f359-283" value="11/18" style="strokeWidth=1;fontStyle=0;html=1;" parent="1" vertex="1">
          <mxGeometry x="1037" y="130" width="70" height="20" as="geometry" />
        </mxCell>
        <mxCell id="67c90442a009f359-284" value="11/25" style="strokeWidth=1;fontStyle=0;html=1;" parent="1" vertex="1">
          <mxGeometry x="1107" y="130" width="70" height="20" as="geometry" />
        </mxCell>
        <mxCell id="67c90442a009f359-285" value="11/29" style="strokeWidth=1;fontStyle=0;html=1;" parent="1" vertex="1">
          <mxGeometry x="1177" y="130" width="70" height="20" as="geometry" />
        </mxCell>
        <mxCell id="67c90442a009f359-286" value="12/02" style="strokeWidth=1;fontStyle=0;html=1;" parent="1" vertex="1">
          <mxGeometry x="1247" y="130" width="70" height="20" as="geometry" />
        </mxCell>
        <mxCell id="67c90442a009f359-287" value="12/06" style="strokeWidth=1;fontStyle=0;html=1;" parent="1" vertex="1">
          <mxGeometry x="1317" y="130" width="70" height="20" as="geometry" />
        </mxCell>
        <mxCell id="67c90442a009f359-288" value="12/09" style="strokeWidth=1;fontStyle=0;html=1;" parent="1" vertex="1">
          <mxGeometry x="1387" y="130" width="70" height="20" as="geometry" />
        </mxCell>
        <mxCell id="67c90442a009f359-292" value="" style="align=left;strokeColor=#CCCCCC;html=1;" parent="1" vertex="1">
          <mxGeometry x="617" y="170" width="2763" height="20" as="geometry" />
        </mxCell>
        <mxCell id="67c90442a009f359-293" value="" style="align=left;strokeColor=#CCCCCC;html=1;" parent="1" vertex="1">
          <mxGeometry x="617" y="190" width="2763" height="20" as="geometry" />
        </mxCell>
        <mxCell id="67c90442a009f359-294" value="" style="align=left;strokeColor=#CCCCCC;html=1;" parent="1" vertex="1">
          <mxGeometry x="617" y="210" width="2763" height="20" as="geometry" />
        </mxCell>
        <mxCell id="67c90442a009f359-295" value="" style="align=left;strokeColor=#CCCCCC;html=1;" parent="1" vertex="1">
          <mxGeometry x="617" y="230" width="2763" height="20" as="geometry" />
        </mxCell>
        <mxCell id="67c90442a009f359-296" value="" style="align=left;strokeColor=#CCCCCC;html=1;" parent="1" vertex="1">
          <mxGeometry x="617" y="250" width="2763" height="20" as="geometry" />
        </mxCell>
        <mxCell id="67c90442a009f359-297" value="" style="align=left;strokeColor=#CCCCCC;html=1;" parent="1" vertex="1">
          <mxGeometry x="617" y="270" width="2763" height="20" as="geometry" />
        </mxCell>
        <mxCell id="67c90442a009f359-298" value="" style="align=left;strokeColor=#CCCCCC;html=1;" parent="1" vertex="1">
          <mxGeometry x="617" y="290" width="2763" height="20" as="geometry" />
        </mxCell>
        <mxCell id="67c90442a009f359-299" value="需求" style="whiteSpace=wrap;html=1;strokeWidth=2;fillColor=#fff2cc;fontSize=14;align=center;strokeColor=#d6b656;" parent="1" vertex="1">
          <mxGeometry x="617" y="150" width="70" height="20" as="geometry" />
        </mxCell>
        <mxCell id="pLuedIP07eUrrY_XdWLa-101" value="智能化专版" style="align=left;strokeColor=#CCCCCC;html=1;" vertex="1" parent="1">
          <mxGeometry x="297.0000000000006" y="310.00000000000057" width="319.9999999999994" height="20" as="geometry" />
        </mxCell>
        <mxCell id="pLuedIP07eUrrY_XdWLa-102" value="" style="align=left;strokeColor=#CCCCCC;html=1;" vertex="1" parent="1">
          <mxGeometry x="617" y="310" width="2763" height="20" as="geometry" />
        </mxCell>
        <mxCell id="pLuedIP07eUrrY_XdWLa-103" value="适老化专版" style="align=left;strokeColor=#CCCCCC;html=1;" vertex="1" parent="1">
          <mxGeometry x="297.0000000000006" y="330.00000000000057" width="319.9999999999994" height="20" as="geometry" />
        </mxCell>
        <mxCell id="pLuedIP07eUrrY_XdWLa-104" value="" style="align=left;strokeColor=#CCCCCC;html=1;" vertex="1" parent="1">
          <mxGeometry x="617" y="330" width="2763" height="20" as="geometry" />
        </mxCell>
        <mxCell id="pLuedIP07eUrrY_XdWLa-106" value="12/13" style="strokeWidth=1;fontStyle=0;html=1;" vertex="1" parent="1">
          <mxGeometry x="1457" y="130" width="70" height="20" as="geometry" />
        </mxCell>
        <mxCell id="pLuedIP07eUrrY_XdWLa-107" value="12/14" style="strokeWidth=1;fontStyle=0;html=1;" vertex="1" parent="1">
          <mxGeometry x="1527" y="130" width="70" height="20" as="geometry" />
        </mxCell>
        <mxCell id="pLuedIP07eUrrY_XdWLa-108" value="12/15" style="strokeWidth=1;fontStyle=0;html=1;" vertex="1" parent="1">
          <mxGeometry x="1597" y="130" width="70" height="20" as="geometry" />
        </mxCell>
        <mxCell id="pLuedIP07eUrrY_XdWLa-109" value="12/20" style="strokeWidth=1;fontStyle=0;html=1;" vertex="1" parent="1">
          <mxGeometry x="1667" y="130" width="70" height="20" as="geometry" />
        </mxCell>
        <mxCell id="pLuedIP07eUrrY_XdWLa-110" value="12/21" style="strokeWidth=1;fontStyle=0;html=1;" vertex="1" parent="1">
          <mxGeometry x="1730" y="130" width="70" height="20" as="geometry" />
        </mxCell>
        <mxCell id="pLuedIP07eUrrY_XdWLa-111" value="12/27" style="strokeWidth=1;fontStyle=0;html=1;" vertex="1" parent="1">
          <mxGeometry x="1801" y="130" width="70" height="20" as="geometry" />
        </mxCell>
        <mxCell id="pLuedIP07eUrrY_XdWLa-112" value="12/31" style="strokeWidth=1;fontStyle=0;html=1;" vertex="1" parent="1">
          <mxGeometry x="1870" y="130" width="70" height="20" as="geometry" />
        </mxCell>
        <mxCell id="pLuedIP07eUrrY_XdWLa-113" value="01/10" style="strokeWidth=1;fontStyle=0;html=1;" vertex="1" parent="1">
          <mxGeometry x="2010" y="130" width="70" height="20" as="geometry" />
        </mxCell>
        <mxCell id="pLuedIP07eUrrY_XdWLa-114" value="01/01" style="strokeWidth=1;fontStyle=0;html=1;" vertex="1" parent="1">
          <mxGeometry x="1940" y="130" width="70" height="20" as="geometry" />
        </mxCell>
        <mxCell id="pLuedIP07eUrrY_XdWLa-115" value="01/11" style="strokeWidth=1;fontStyle=0;html=1;" vertex="1" parent="1">
          <mxGeometry x="2080" y="130" width="70" height="20" as="geometry" />
        </mxCell>
        <mxCell id="pLuedIP07eUrrY_XdWLa-116" value="01/20" style="strokeWidth=1;fontStyle=0;html=1;" vertex="1" parent="1">
          <mxGeometry x="2150" y="130" width="70" height="20" as="geometry" />
        </mxCell>
        <mxCell id="pLuedIP07eUrrY_XdWLa-117" value="01/21" style="strokeWidth=1;fontStyle=0;html=1;" vertex="1" parent="1">
          <mxGeometry x="2210" y="130" width="70" height="20" as="geometry" />
        </mxCell>
        <mxCell id="pLuedIP07eUrrY_XdWLa-118" value="02/10" style="strokeWidth=1;fontStyle=0;html=1;" vertex="1" parent="1">
          <mxGeometry x="2270" y="130" width="70" height="20" as="geometry" />
        </mxCell>
        <mxCell id="pLuedIP07eUrrY_XdWLa-119" value="02/14" style="strokeWidth=1;fontStyle=0;html=1;" vertex="1" parent="1">
          <mxGeometry x="2340" y="130" width="70" height="20" as="geometry" />
        </mxCell>
        <mxCell id="pLuedIP07eUrrY_XdWLa-120" value="02/21" style="strokeWidth=1;fontStyle=0;html=1;" vertex="1" parent="1">
          <mxGeometry x="2410" y="130" width="70" height="20" as="geometry" />
        </mxCell>
        <mxCell id="pLuedIP07eUrrY_XdWLa-121" value="02/28" style="strokeWidth=1;fontStyle=0;html=1;" vertex="1" parent="1">
          <mxGeometry x="2480" y="130" width="70" height="20" as="geometry" />
        </mxCell>
        <mxCell id="pLuedIP07eUrrY_XdWLa-122" value="03/14" style="strokeWidth=1;fontStyle=0;html=1;" vertex="1" parent="1">
          <mxGeometry x="2550" y="130" width="70" height="20" as="geometry" />
        </mxCell>
        <mxCell id="pLuedIP07eUrrY_XdWLa-123" value="03/20" style="strokeWidth=1;fontStyle=0;html=1;" vertex="1" parent="1">
          <mxGeometry x="2620" y="130" width="70" height="20" as="geometry" />
        </mxCell>
        <mxCell id="pLuedIP07eUrrY_XdWLa-124" value="03/21" style="strokeWidth=1;fontStyle=0;html=1;" vertex="1" parent="1">
          <mxGeometry x="2690" y="130" width="70" height="20" as="geometry" />
        </mxCell>
        <mxCell id="pLuedIP07eUrrY_XdWLa-125" value="03/28" style="strokeWidth=1;fontStyle=0;html=1;" vertex="1" parent="1">
          <mxGeometry x="2760" y="130" width="70" height="20" as="geometry" />
        </mxCell>
        <mxCell id="pLuedIP07eUrrY_XdWLa-126" value="03/29" style="strokeWidth=1;fontStyle=0;html=1;" vertex="1" parent="1">
          <mxGeometry x="2830" y="130" width="70" height="20" as="geometry" />
        </mxCell>
        <mxCell id="pLuedIP07eUrrY_XdWLa-127" value="04/11" style="strokeWidth=1;fontStyle=0;html=1;" vertex="1" parent="1">
          <mxGeometry x="2900" y="130" width="70" height="20" as="geometry" />
        </mxCell>
        <mxCell id="pLuedIP07eUrrY_XdWLa-128" value="04/18" style="strokeWidth=1;fontStyle=0;html=1;" vertex="1" parent="1">
          <mxGeometry x="2970" y="130" width="70" height="20" as="geometry" />
        </mxCell>
        <mxCell id="pLuedIP07eUrrY_XdWLa-129" value="04/25" style="strokeWidth=1;fontStyle=0;html=1;" vertex="1" parent="1">
          <mxGeometry x="3040" y="130" width="70" height="20" as="geometry" />
        </mxCell>
        <mxCell id="pLuedIP07eUrrY_XdWLa-130" value="05/23" style="strokeWidth=1;fontStyle=0;html=1;" vertex="1" parent="1">
          <mxGeometry x="3170" y="130" width="70" height="20" as="geometry" />
        </mxCell>
        <mxCell id="pLuedIP07eUrrY_XdWLa-131" value="05/09" style="strokeWidth=1;fontStyle=0;html=1;" vertex="1" parent="1">
          <mxGeometry x="3100" y="130" width="70" height="20" as="geometry" />
        </mxCell>
        <mxCell id="pLuedIP07eUrrY_XdWLa-132" value="06/30" style="strokeWidth=1;fontStyle=0;html=1;" vertex="1" parent="1">
          <mxGeometry x="3310" y="130" width="70" height="20" as="geometry" />
        </mxCell>
        <mxCell id="pLuedIP07eUrrY_XdWLa-133" value="06/13" style="strokeWidth=1;fontStyle=0;html=1;" vertex="1" parent="1">
          <mxGeometry x="3240" y="130" width="70" height="20" as="geometry" />
        </mxCell>
        <mxCell id="pLuedIP07eUrrY_XdWLa-134" value="开发" style="whiteSpace=wrap;html=1;strokeWidth=2;fillColor=#ffe6cc;fontSize=14;align=center;strokeColor=#d79b00;" vertex="1" parent="1">
          <mxGeometry x="687" y="150" width="350" height="20" as="geometry" />
        </mxCell>
        <mxCell id="pLuedIP07eUrrY_XdWLa-135" value="测试" style="whiteSpace=wrap;html=1;strokeWidth=2;fillColor=#d5e8d4;fontSize=14;align=center;strokeColor=#82b366;" vertex="1" parent="1">
          <mxGeometry x="1037" y="150" width="140" height="20" as="geometry" />
        </mxCell>
        <mxCell id="pLuedIP07eUrrY_XdWLa-136" value="业务验收" style="whiteSpace=wrap;html=1;strokeWidth=2;fillColor=#f5f5f5;fontSize=14;align=center;strokeColor=#666666;fontColor=#333333;" vertex="1" parent="1">
          <mxGeometry x="1177" y="150" width="420" height="20" as="geometry" />
        </mxCell>
        <mxCell id="pLuedIP07eUrrY_XdWLa-137" value="" style="whiteSpace=wrap;html=1;strokeWidth=2;fillColor=#a20025;fontSize=14;align=center;strokeColor=#6F0000;fontColor=#ffffff;" vertex="1" parent="1">
          <mxGeometry x="1597" y="150" width="70" height="20" as="geometry" />
        </mxCell>
        <mxCell id="pLuedIP07eUrrY_XdWLa-138" value="需求" style="whiteSpace=wrap;html=1;strokeWidth=2;fillColor=#fff2cc;fontSize=14;align=center;strokeColor=#d6b656;" vertex="1" parent="1">
          <mxGeometry x="300" y="60" width="70" height="20" as="geometry" />
        </mxCell>
        <mxCell id="pLuedIP07eUrrY_XdWLa-139" value="开发" style="whiteSpace=wrap;html=1;strokeWidth=2;fillColor=#ffe6cc;fontSize=14;align=center;strokeColor=#d79b00;" vertex="1" parent="1">
          <mxGeometry x="400" y="60" width="70" height="20" as="geometry" />
        </mxCell>
        <mxCell id="pLuedIP07eUrrY_XdWLa-140" value="测试" style="whiteSpace=wrap;html=1;strokeWidth=2;fillColor=#d5e8d4;fontSize=14;align=center;strokeColor=#82b366;" vertex="1" parent="1">
          <mxGeometry x="490" y="60" width="70" height="20" as="geometry" />
        </mxCell>
        <mxCell id="pLuedIP07eUrrY_XdWLa-141" value="业务验收" style="whiteSpace=wrap;html=1;strokeWidth=2;fillColor=#f5f5f5;fontSize=14;align=center;strokeColor=#666666;fontColor=#333333;" vertex="1" parent="1">
          <mxGeometry x="580" y="60" width="70" height="20" as="geometry" />
        </mxCell>
        <mxCell id="pLuedIP07eUrrY_XdWLa-142" value="上线" style="whiteSpace=wrap;html=1;strokeWidth=2;fillColor=#a20025;fontSize=14;align=center;strokeColor=#6F0000;fontColor=#ffffff;" vertex="1" parent="1">
          <mxGeometry x="670" y="60" width="70" height="20" as="geometry" />
        </mxCell>
        <mxCell id="pLuedIP07eUrrY_XdWLa-143" value="需求" style="whiteSpace=wrap;html=1;strokeWidth=2;fillColor=#fff2cc;fontSize=14;align=center;strokeColor=#d6b656;" vertex="1" parent="1">
          <mxGeometry x="827" y="170" width="350" height="20" as="geometry" />
        </mxCell>
        <mxCell id="pLuedIP07eUrrY_XdWLa-144" value="开发" style="whiteSpace=wrap;html=1;strokeWidth=2;fillColor=#ffe6cc;fontSize=14;align=center;strokeColor=#d79b00;" vertex="1" parent="1">
          <mxGeometry x="1177" y="170" width="210" height="20" as="geometry" />
        </mxCell>
        <mxCell id="pLuedIP07eUrrY_XdWLa-145" value="测试" style="whiteSpace=wrap;html=1;strokeWidth=2;fillColor=#d5e8d4;fontSize=14;align=center;strokeColor=#82b366;" vertex="1" parent="1">
          <mxGeometry x="1389" y="170" width="340" height="20" as="geometry" />
        </mxCell>
        <mxCell id="pLuedIP07eUrrY_XdWLa-146" value="业务验收" style="whiteSpace=wrap;html=1;strokeWidth=2;fillColor=#f5f5f5;fontSize=14;align=center;strokeColor=#666666;fontColor=#333333;" vertex="1" parent="1">
          <mxGeometry x="1730" y="170" width="140" height="20" as="geometry" />
        </mxCell>
        <mxCell id="pLuedIP07eUrrY_XdWLa-147" value="上线" style="whiteSpace=wrap;html=1;strokeWidth=2;fillColor=#a20025;fontSize=14;align=center;strokeColor=#6F0000;fontColor=#ffffff;" vertex="1" parent="1">
          <mxGeometry x="1871" y="170" width="39" height="20" as="geometry" />
        </mxCell>
        <mxCell id="pLuedIP07eUrrY_XdWLa-148" value="需求" style="whiteSpace=wrap;html=1;strokeWidth=2;fillColor=#fff2cc;fontSize=14;align=center;strokeColor=#d6b656;" vertex="1" parent="1">
          <mxGeometry x="827" y="190" width="210" height="20" as="geometry" />
        </mxCell>
        <mxCell id="pLuedIP07eUrrY_XdWLa-149" value="开发" style="whiteSpace=wrap;html=1;strokeWidth=2;fillColor=#ffe6cc;fontSize=14;align=center;strokeColor=#d79b00;" vertex="1" parent="1">
          <mxGeometry x="1037" y="190" width="210" height="20" as="geometry" />
        </mxCell>
        <mxCell id="pLuedIP07eUrrY_XdWLa-150" value="测试" style="whiteSpace=wrap;html=1;strokeWidth=2;fillColor=#d5e8d4;fontSize=14;align=center;strokeColor=#82b366;" vertex="1" parent="1">
          <mxGeometry x="1247" y="190" width="280" height="20" as="geometry" />
        </mxCell>
        <mxCell id="pLuedIP07eUrrY_XdWLa-151" value="业务验收" style="whiteSpace=wrap;html=1;strokeWidth=2;fillColor=#f5f5f5;fontSize=14;align=center;strokeColor=#666666;fontColor=#333333;" vertex="1" parent="1">
          <mxGeometry x="1527" y="190" width="273" height="20" as="geometry" />
        </mxCell>
        <mxCell id="pLuedIP07eUrrY_XdWLa-152" value="上线" style="whiteSpace=wrap;html=1;strokeWidth=2;fillColor=#a20025;fontSize=14;align=center;strokeColor=#6F0000;fontColor=#ffffff;" vertex="1" parent="1">
          <mxGeometry x="1801" y="190" width="39" height="20" as="geometry" />
        </mxCell>
        <mxCell id="pLuedIP07eUrrY_XdWLa-153" value="需求" style="whiteSpace=wrap;html=1;strokeWidth=2;fillColor=#fff2cc;fontSize=14;align=center;strokeColor=#d6b656;" vertex="1" parent="1">
          <mxGeometry x="897" y="210" width="350" height="20" as="geometry" />
        </mxCell>
        <mxCell id="pLuedIP07eUrrY_XdWLa-154" value="开发" style="whiteSpace=wrap;html=1;strokeWidth=2;fillColor=#ffe6cc;fontSize=14;align=center;strokeColor=#d79b00;" vertex="1" parent="1">
          <mxGeometry x="1247" y="210" width="483" height="20" as="geometry" />
        </mxCell>
        <mxCell id="pLuedIP07eUrrY_XdWLa-155" value="测试" style="whiteSpace=wrap;html=1;strokeWidth=2;fillColor=#d5e8d4;fontSize=14;align=center;strokeColor=#82b366;" vertex="1" parent="1">
          <mxGeometry x="1730" y="210" width="420" height="20" as="geometry" />
        </mxCell>
        <mxCell id="pLuedIP07eUrrY_XdWLa-156" value="业务验收" style="whiteSpace=wrap;html=1;strokeWidth=2;fillColor=#f5f5f5;fontSize=14;align=center;strokeColor=#666666;fontColor=#333333;" vertex="1" parent="1">
          <mxGeometry x="2150" y="210" width="330" height="20" as="geometry" />
        </mxCell>
        <mxCell id="pLuedIP07eUrrY_XdWLa-157" value="上线" style="whiteSpace=wrap;html=1;strokeWidth=2;fillColor=#a20025;fontSize=14;align=center;strokeColor=#6F0000;fontColor=#ffffff;" vertex="1" parent="1">
          <mxGeometry x="2480" y="210" width="39" height="20" as="geometry" />
        </mxCell>
        <mxCell id="pLuedIP07eUrrY_XdWLa-158" value="需求" style="whiteSpace=wrap;html=1;strokeWidth=2;fillColor=#fff2cc;fontSize=14;align=center;strokeColor=#d6b656;" vertex="1" parent="1">
          <mxGeometry x="1247" y="230" width="483" height="20" as="geometry" />
        </mxCell>
        <mxCell id="pLuedIP07eUrrY_XdWLa-159" value="开发" style="whiteSpace=wrap;html=1;strokeWidth=2;fillColor=#ffe6cc;fontSize=14;align=center;strokeColor=#d79b00;" vertex="1" parent="1">
          <mxGeometry x="1731" y="230" width="349" height="20" as="geometry" />
        </mxCell>
        <mxCell id="pLuedIP07eUrrY_XdWLa-160" value="测试" style="whiteSpace=wrap;html=1;strokeWidth=2;fillColor=#d5e8d4;fontSize=14;align=center;strokeColor=#82b366;" vertex="1" parent="1">
          <mxGeometry x="2080" y="230" width="340" height="20" as="geometry" />
        </mxCell>
        <mxCell id="pLuedIP07eUrrY_XdWLa-161" value="业务验收" style="whiteSpace=wrap;html=1;strokeWidth=2;fillColor=#f5f5f5;fontSize=14;align=center;strokeColor=#666666;fontColor=#333333;" vertex="1" parent="1">
          <mxGeometry x="2420" y="230" width="130" height="20" as="geometry" />
        </mxCell>
        <mxCell id="pLuedIP07eUrrY_XdWLa-162" value="上线" style="whiteSpace=wrap;html=1;strokeWidth=2;fillColor=#a20025;fontSize=14;align=center;strokeColor=#6F0000;fontColor=#ffffff;" vertex="1" parent="1">
          <mxGeometry x="2550" y="230" width="39" height="20" as="geometry" />
        </mxCell>
        <mxCell id="pLuedIP07eUrrY_XdWLa-163" value="需求" style="whiteSpace=wrap;html=1;strokeWidth=2;fillColor=#fff2cc;fontSize=14;align=center;strokeColor=#d6b656;" vertex="1" parent="1">
          <mxGeometry x="687" y="250" width="70" height="20" as="geometry" />
        </mxCell>
        <mxCell id="pLuedIP07eUrrY_XdWLa-164" value="上线" style="whiteSpace=wrap;html=1;strokeWidth=2;fillColor=#a20025;fontSize=14;align=center;strokeColor=#6F0000;fontColor=#ffffff;" vertex="1" parent="1">
          <mxGeometry x="2830" y="250" width="39" height="20" as="geometry" />
        </mxCell>
        <mxCell id="pLuedIP07eUrrY_XdWLa-165" value="需求" style="whiteSpace=wrap;html=1;strokeWidth=2;fillColor=#fff2cc;fontSize=14;align=center;strokeColor=#d6b656;" vertex="1" parent="1">
          <mxGeometry x="1389" y="270" width="551" height="20" as="geometry" />
        </mxCell>
        <mxCell id="pLuedIP07eUrrY_XdWLa-166" value="开发" style="whiteSpace=wrap;html=1;strokeWidth=2;fillColor=#ffe6cc;fontSize=14;align=center;strokeColor=#d79b00;" vertex="1" parent="1">
          <mxGeometry x="1940.5" y="270" width="539.5" height="20" as="geometry" />
        </mxCell>
        <mxCell id="pLuedIP07eUrrY_XdWLa-167" value="测试" style="whiteSpace=wrap;html=1;strokeWidth=2;fillColor=#d5e8d4;fontSize=14;align=center;strokeColor=#82b366;" vertex="1" parent="1">
          <mxGeometry x="2480" y="270" width="140" height="20" as="geometry" />
        </mxCell>
        <mxCell id="pLuedIP07eUrrY_XdWLa-168" value="业务验收" style="whiteSpace=wrap;html=1;strokeWidth=2;fillColor=#f5f5f5;fontSize=14;align=center;strokeColor=#666666;fontColor=#333333;" vertex="1" parent="1">
          <mxGeometry x="2620" y="270" width="210" height="20" as="geometry" />
        </mxCell>
        <mxCell id="pLuedIP07eUrrY_XdWLa-169" value="上线" style="whiteSpace=wrap;html=1;strokeWidth=2;fillColor=#a20025;fontSize=14;align=center;strokeColor=#6F0000;fontColor=#ffffff;" vertex="1" parent="1">
          <mxGeometry x="2830" y="270" width="39" height="20" as="geometry" />
        </mxCell>
        <mxCell id="pLuedIP07eUrrY_XdWLa-170" value="需求" style="whiteSpace=wrap;html=1;strokeWidth=2;fillColor=#fff2cc;fontSize=14;align=center;strokeColor=#d6b656;" vertex="1" parent="1">
          <mxGeometry x="1940.5" y="290" width="269.5" height="20" as="geometry" />
        </mxCell>
        <mxCell id="pLuedIP07eUrrY_XdWLa-171" value="开发" style="whiteSpace=wrap;html=1;strokeWidth=2;fillColor=#ffe6cc;fontSize=14;align=center;strokeColor=#d79b00;" vertex="1" parent="1">
          <mxGeometry x="2210" y="290" width="550" height="20" as="geometry" />
        </mxCell>
        <mxCell id="pLuedIP07eUrrY_XdWLa-172" value="测试" style="whiteSpace=wrap;html=1;strokeWidth=2;fillColor=#d5e8d4;fontSize=14;align=center;strokeColor=#82b366;" vertex="1" parent="1">
          <mxGeometry x="2760" y="290" width="210" height="20" as="geometry" />
        </mxCell>
        <mxCell id="pLuedIP07eUrrY_XdWLa-173" value="业务验收" style="whiteSpace=wrap;html=1;strokeWidth=2;fillColor=#f5f5f5;fontSize=14;align=center;strokeColor=#666666;fontColor=#333333;" vertex="1" parent="1">
          <mxGeometry x="2970" y="290" width="130" height="20" as="geometry" />
        </mxCell>
        <mxCell id="pLuedIP07eUrrY_XdWLa-174" value="上线" style="whiteSpace=wrap;html=1;strokeWidth=2;fillColor=#a20025;fontSize=14;align=center;strokeColor=#6F0000;fontColor=#ffffff;" vertex="1" parent="1">
          <mxGeometry x="3100" y="290" width="39" height="20" as="geometry" />
        </mxCell>
        <mxCell id="pLuedIP07eUrrY_XdWLa-175" value="需求" style="whiteSpace=wrap;html=1;strokeWidth=2;fillColor=#fff2cc;fontSize=14;align=center;strokeColor=#d6b656;" vertex="1" parent="1">
          <mxGeometry x="2270" y="310" width="350" height="20" as="geometry" />
        </mxCell>
        <mxCell id="pLuedIP07eUrrY_XdWLa-176" value="开发" style="whiteSpace=wrap;html=1;strokeWidth=2;fillColor=#ffe6cc;fontSize=14;align=center;strokeColor=#d79b00;" vertex="1" parent="1">
          <mxGeometry x="2620" y="310" width="430" height="20" as="geometry" />
        </mxCell>
        <mxCell id="pLuedIP07eUrrY_XdWLa-177" value="测试" style="whiteSpace=wrap;html=1;strokeWidth=2;fillColor=#d5e8d4;fontSize=14;align=center;strokeColor=#82b366;" vertex="1" parent="1">
          <mxGeometry x="3050" y="310" width="120" height="20" as="geometry" />
        </mxCell>
        <mxCell id="pLuedIP07eUrrY_XdWLa-178" value="业务验收" style="whiteSpace=wrap;html=1;strokeWidth=2;fillColor=#f5f5f5;fontSize=14;align=center;strokeColor=#666666;fontColor=#333333;" vertex="1" parent="1">
          <mxGeometry x="3170" y="310" width="70" height="20" as="geometry" />
        </mxCell>
        <mxCell id="pLuedIP07eUrrY_XdWLa-179" value="上线" style="whiteSpace=wrap;html=1;strokeWidth=2;fillColor=#a20025;fontSize=14;align=center;strokeColor=#6F0000;fontColor=#ffffff;" vertex="1" parent="1">
          <mxGeometry x="3240" y="310" width="39" height="20" as="geometry" />
        </mxCell>
        <mxCell id="pLuedIP07eUrrY_XdWLa-180" value="需求" style="whiteSpace=wrap;html=1;strokeWidth=2;fillColor=#fff2cc;fontSize=14;align=center;strokeColor=#d6b656;" vertex="1" parent="1">
          <mxGeometry x="2620" y="330" width="430" height="20" as="geometry" />
        </mxCell>
        <mxCell id="pLuedIP07eUrrY_XdWLa-181" value="开发" style="whiteSpace=wrap;html=1;strokeWidth=2;fillColor=#ffe6cc;fontSize=14;align=center;strokeColor=#d79b00;" vertex="1" parent="1">
          <mxGeometry x="3050" y="330" width="190" height="20" as="geometry" />
        </mxCell>
        <mxCell id="pLuedIP07eUrrY_XdWLa-182" value="测试" style="whiteSpace=wrap;html=1;strokeWidth=2;fillColor=#d5e8d4;fontSize=14;align=center;strokeColor=#82b366;" vertex="1" parent="1">
          <mxGeometry x="3240" y="330" width="70" height="20" as="geometry" />
        </mxCell>
        <mxCell id="pLuedIP07eUrrY_XdWLa-183" value="业务验收" style="whiteSpace=wrap;html=1;strokeWidth=2;fillColor=#f5f5f5;fontSize=14;align=center;strokeColor=#666666;fontColor=#333333;" vertex="1" parent="1">
          <mxGeometry x="3310" y="330" width="70" height="20" as="geometry" />
        </mxCell>
      </root>
    </mxGraphModel>
  </diagram>
</mxfile>
